<?xml version="1.0" encoding="UTF-8" standalone="no"?>
<!-- Created with Inkscape (http://www.inkscape.org/) -->

<svg
   xmlns:dc="http://purl.org/dc/elements/1.1/"
   xmlns:cc="http://creativecommons.org/ns#"
   xmlns:rdf="http://www.w3.org/1999/02/22-rdf-syntax-ns#"
   xmlns:svg="http://www.w3.org/2000/svg"
   xmlns="http://www.w3.org/2000/svg"
   xmlns:sodipodi="http://sodipodi.sourceforge.net/DTD/sodipodi-0.dtd"
   xmlns:inkscape="http://www.inkscape.org/namespaces/inkscape"
   id="svg2"
   version="1.1"
   inkscape:version="0.48.3.1 r9886"
   width="716.25"
   height="173.75"
   xml:space="preserve"
   sodipodi:docname="cranfield_logo.eps"><metadata
     id="metadata8"><rdf:RDF><cc:Work
         rdf:about=""><dc:format>image/svg+xml</dc:format><dc:type
           rdf:resource="http://purl.org/dc/dcmitype/StillImage" /><dc:title></dc:title></cc:Work></rdf:RDF></metadata><defs
     id="defs6" /><sodipodi:namedview
     pagecolor="#ffffff"
     bordercolor="#666666"
     borderopacity="1"
     objecttolerance="10"
     gridtolerance="10"
     guidetolerance="10"
     inkscape:pageopacity="0"
     inkscape:pageshadow="2"
     inkscape:window-width="1366"
     inkscape:window-height="748"
     id="namedview4"
     showgrid="false"
     inkscape:zoom="0.50401396"
     inkscape:cx="358.125"
     inkscape:cy="86.875"
     inkscape:window-x="0"
     inkscape:window-y="20"
     inkscape:window-maximized="0"
     inkscape:current-layer="g10" /><g
     id="g10"
     inkscape:groupmode="layer"
     inkscape:label="ink_ext_XXXXXX"
     transform="matrix(1.25,0,0,-1.25,0,173.75)"><g
       id="g12"
       transform="scale(0.1,0.1)"><path
         d="m 2878.02,315.285 0,17.012 67.1,-1.418 27.86,0.48 27.89,0.711 7.62,0.227 0,-17.012 c -14.95,0 -24.45,-1.308 -28.45,-3.937 -2.09,-1.231 -3.49,-3.563 -4.17,-6.993 -1.89,-8.386 -2.82,-26.816 -2.82,-55.253 l 0,-46.817 0.15,-23.691 c 0,-24.617 0.17,-39.883 0.54,-45.793 1.26,-12.645 4.54,-22.848 9.85,-30.613 5.33,-7.7622 13.47,-14.0122 24.45,-18.7505 10.96,-4.7461 24.91,-7.1289 41.85,-7.1289 19.43,0 34.91,3.1953 46.45,9.5898 11.53,6.3985 19.75,14.7186 24.64,24.9606 4.89,10.227 7.33,29.719 7.33,58.438 l 0,41.25 c 0,35.578 -0.23,57.285 -0.68,65.137 -0.42,16.914 -1.38,27.148 -2.86,30.742 -0.96,2.062 -2.52,3.613 -4.69,4.738 -4.48,2.313 -14.26,3.699 -29.33,4.121 l 0,17.012 c 24.7,-0.949 39.37,-1.418 44.02,-1.418 1.23,0 3.07,0.07 5.53,0.195 l 45.46,1.223 0,-17.012 c -12.84,0 -20.9,-1.047 -24.19,-3.109 -1.67,-1.09 -3,-3.153 -4.04,-6.168 -1.03,-3.02 -2.02,-16.653 -2.97,-40.899 -0.97,-24.238 -1.42,-43.371 -1.42,-57.382 l 0,-47.383 c 0,-12.227 -0.88,-24.797 -2.68,-37.715 -1.81,-12.922 -5.42,-23.9376 -10.87,-33.0665 -5.46,-9.1328 -13.17,-17.4023 -23.09,-24.8242 -9.96,-7.4141 -21.75,-13.0274 -35.41,-16.8086 -13.68,-3.7578 -29.49,-5.6445 -47.43,-5.6445 -20.97,0 -40.59,2.746 -58.82,8.2421 -13.24,4.1329 -24.08,9.5625 -32.48,16.3789 -8.44,6.7852 -14.86,14.3829 -19.26,22.7618 -4.44,8.3789 -7.13,16.484 -8.1,24.309 -0.68,4.949 -1.02,17.996 -1.02,39.156 l 0.2,38.937 0,51.309 c 0,18.809 -0.24,35.773 -0.7,50.879 -0.43,5.91 -1.27,10.168 -2.56,12.773 -0.69,1.516 -2.48,3.301 -5.3,5.364 l -27.6,2.89"
         style="fill:#9a9b9c;fill-opacity:1;fill-rule:nonzero;stroke:none"
         id="path14" /><path
         d="m 3225.34,67.1016 c 16.47,0.8203 25.88,1.5703 28.25,2.2539 1.54,0.5586 2.81,1.3984 3.87,2.5703 1.05,1.1523 1.93,3.6523 2.63,7.4883 0.77,5.0507 1.71,17.375 2.74,36.9259 0.53,11.09 0.8,25.566 0.8,43.504 l 0,64.445 -0.71,58.68 c -0.15,9.707 -0.56,16.027 -1.26,18.976 -0.69,2.938 -1.69,5.125 -3.03,6.563 -1.31,1.445 -3.5,2.578 -6.57,3.398 -3.06,0.809 -11.96,1.688 -26.72,2.656 l 0,17.735 c 17.45,-0.949 30.32,-1.418 38.58,-1.418 l 29.92,0.715 18.98,0.703 c 28.29,-36.32 62.54,-78.145 102.78,-125.469 28.98,-34.121 53.01,-60.832 72.11,-80.078 l 0,46.445 c 0,72.325 -0.84,114.86 -2.48,127.598 -0.57,4.93 -1.79,8.164 -3.73,9.656 -3.17,2.473 -13.89,3.84 -32.18,4.113 l 0,17.735 c 16.79,-0.949 32.14,-1.418 46.09,-1.418 13.43,0 30.7,0.469 51.85,1.418 l 0,-17.735 c -16.87,-0.421 -26.9,-1.64 -30.05,-3.703 -1.12,-0.703 -1.88,-1.718 -2.29,-3.097 -2.08,-6.735 -3.24,-22.106 -3.46,-46.129 -0.26,-24.043 -0.37,-41.758 -0.37,-53.145 0,-89.543 0.94,-143.8396 2.85,-162.9411 l -2.71,-1.8555 c -11.65,2.0508 -23.48,3.9375 -35.5,5.6836 -44.37,48.5664 -107.26,121.621 -188.69,219.16 l 0,-100.41 c 0,-20.848 0.46,-42.586 1.41,-65.234 0.55,-15.4887 1.37,-24.9496 2.49,-28.3793 0.52,-1.6484 1.46,-2.9687 2.77,-3.9179 1.3,-0.9571 3.61,-1.6485 6.91,-2.0469 8.93,-1.1055 15.47,-1.6524 19.59,-1.6524 0.83,0 2.21,0.0508 4.14,0.2071 l 0,-17.0313 c -26.15,0.4844 -41.02,0.7227 -44.59,0.7227 -13.38,0 -31.54,-0.4805 -54.42,-1.418 l 0,17.7266"
         style="fill:#9a9b9c;fill-opacity:1;fill-rule:nonzero;stroke:none"
         id="path16" /><path
         d="m 3725,332.297 0,-17.735 c -14.22,-0.421 -22.66,-0.917 -25.32,-1.535 -2.69,-0.632 -4.58,-1.394 -5.68,-2.273 -1.15,-0.91 -1.93,-2.035 -2.35,-3.418 -0.97,-2.188 -1.67,-6.535 -2.1,-13 -0.14,-3.574 -0.24,-10.184 -0.31,-19.793 -0.28,-33.313 -0.4,-51.191 -0.4,-53.684 l 0,-81.523 0.71,-37.148 c 0,-13.9068 0.68,-22.9185 2.05,-27.0396 0.56,-1.9257 1.49,-3.3711 2.79,-4.3359 1.31,-0.957 3.38,-1.75 6.18,-2.375 2.81,-0.625 10.97,-1.0742 24.43,-1.3359 l 0,-17.7266 c -22.44,0.9375 -46.41,1.418 -71.89,1.418 -22.18,0 -41.93,-0.4805 -59.28,-1.418 l 0,17.7266 c 14.79,0.5546 23.33,1.0234 25.62,1.4453 2.99,0.5351 5.02,1.2695 6.08,2.1679 1.07,0.8672 1.75,1.9727 2.05,3.2032 0.42,1.6289 0.99,7.957 1.7,18.9843 0.46,16.2307 0.71,31.2387 0.71,45.0077 l 0,84.621 c 0,26.813 -0.25,44.082 -0.71,51.785 -0.69,17.051 -1.53,27.786 -2.47,32.219 -0.41,1.621 -1.07,2.93 -1.97,3.906 -0.88,0.965 -2.54,1.735 -4.95,2.371 -2.4,0.614 -11.08,1.2 -26.06,1.75 l 0,17.735 c 17.35,-0.949 37.24,-1.418 59.7,-1.418 25.19,0 49.03,0.469 71.47,1.418"
         style="fill:#9a9b9c;fill-opacity:1;fill-rule:nonzero;stroke:none"
         id="path18" /><path
         d="m 3904.6,47.9414 c -11.71,28.3398 -22.95,55.1916 -33.69,80.6446 l -29.34,68.445 c -23.02,53.75 -37.18,85.793 -42.49,96.086 -5.31,10.301 -9.34,16.219 -12.09,17.742 -4.13,2.196 -12.67,3.43 -25.62,3.703 l 0,17.735 c 32.94,-0.949 52.97,-1.418 60.09,-1.418 l 73.95,1.418 0,-17.735 c -11.53,-0.148 -19.92,-0.82 -25.16,-2.062 -3,-0.684 -5.1,-1.668 -6.27,-2.988 -1.17,-1.309 -1.76,-2.918 -1.76,-4.836 0,-4.121 4.53,-16.981 13.6,-38.531 5.23,-12.426 8.03,-19.114 8.39,-20.079 0.33,-0.968 0.79,-2.218 1.34,-3.73 l 52.4,-125.16 46.05,111.504 c 1.11,2.609 6.02,15.371 14.74,38.273 6.2,16.223 9.99,27.082 11.38,32.559 0.25,1.652 0.4,3.3 0.4,4.953 0,2.207 -0.38,3.867 -1.14,5.047 -0.76,1.172 -1.74,2.031 -3,2.578 -0.96,0.41 -3.45,0.762 -7.43,1.035 -8.95,0.82 -16.52,1.289 -22.7,1.437 l 0,17.735 52.45,-1.418 44.66,1.418 0,-17.735 c -13.39,-1.23 -21.18,-2.679 -23.39,-4.328 -3.71,-2.734 -11.5,-17.988 -23.38,-45.761 L 4011.93,230.852 3984,165.703 c -23.73,-55.535 -39.79,-94.7928 -48.2,-117.7616 l -31.2,0"
         style="fill:#9a9b9c;fill-opacity:1;fill-rule:nonzero;stroke:none"
         id="path20" /><path
         d="m 4118.61,49.1328 0,10.7422 c 8.38,3.8555 15.24,7.7812 20.55,11.7656 0.8,5.6563 1.45,14.8438 1.98,27.6563 1.04,23.1171 1.57,39.9801 1.57,50.5861 l 0,91.043 c 0,3.449 -0.25,16.582 -0.71,39.437 -0.41,15.262 -1.36,24.567 -2.87,27.86 -0.69,1.386 -1.72,2.41 -3.06,3.105 -3.71,1.652 -13.56,2.891 -29.52,3.723 l 0,15.594 47.73,0.605 c 9.47,0.051 18.51,0.109 27.17,0.109 18.78,0 39.72,0.184 62.75,0.614 l 41.77,1.035 c 4.94,0 14.96,-0.281 30.06,-0.82 1.36,0 3.63,-0.536 6.78,-1.543 l 1.46,-2.684 -3.77,-29.152 c -0.15,-1.926 -0.79,-11.641 -1.95,-29.149 l -16.3,0 c -0.27,15.75 -0.9,25.379 -1.85,28.926 -0.54,1.894 -1.38,3.25 -2.46,4.082 -1.78,1.211 -7.26,2.293 -16.42,3.242 -13.53,1.356 -26.8,2.051 -39.79,2.051 -12.17,0 -24.61,-0.481 -37.34,-1.418 -1.89,-15.105 -2.84,-34.422 -2.84,-57.891 l 0,-41.375 c 9.25,-0.949 18.9,-1.445 28.95,-1.445 3.11,0 14.42,0.293 33.84,0.828 7.33,0.145 11.66,0.625 12.95,1.434 1.28,0.832 2.26,2.25 2.94,4.289 1.65,5.058 2.6,13.504 2.88,25.371 l 17.02,0 -0.72,-44.52 0.72,-44.121 -17.02,0 c 0.12,15.563 -0.9,25.223 -3.1,28.926 -1.66,2.762 -4.62,4.422 -8.88,4.981 -9.49,1.503 -21.68,2.273 -36.53,2.273 -13.36,0 -24.37,-0.469 -33.05,-1.414 l 0,-84.7188 c 0,-9.5313 0.25,-17.6954 0.73,-24.5 11.01,-0.9571 24.1,-1.418 39.22,-1.418 14.73,0 28.32,0.4687 40.8,1.4453 12.48,0.957 20.14,2.3437 22.99,4.1523 0.97,0.5352 1.85,1.7149 2.65,3.504 2.45,6.4765 5.05,18.8012 7.78,36.9922 l 17.01,0 c -2.95,-26.7266 -4.44,-48.7501 -4.44,-66.0938 l -2.65,-2.6758 c -8.78,-0.9648 -21.28,-1.4336 -37.48,-1.4336 l -33.18,0.5742 c -32.68,0.5547 -55.21,0.8594 -67.58,0.8594 -3.31,0 -26.24,-0.4961 -68.79,-1.4336"
         style="fill:#9a9b9c;fill-opacity:1;fill-rule:nonzero;stroke:none"
         id="path22" /><path
         d="m 4381.89,315.996 0,16.301 c 3.15,0 14.14,-0.324 32.91,-0.938 9.2,-0.324 22.23,-0.48 39.11,-0.48 14.38,0 26.73,0.301 37.03,0.937 17,0.782 31.07,1.192 42.18,1.192 21.53,0 37.64,-1.524 48.34,-4.531 10.71,-3.028 19.82,-9.305 27.36,-18.856 7.56,-9.551 11.34,-21.203 11.34,-34.922 0,-16.359 -5.18,-31.203 -15.54,-44.523 -10.33,-13.321 -26.27,-23.906 -47.79,-31.727 3.44,-6.035 7.35,-12.199 11.78,-18.519 4.41,-6.297 6.98,-10.114 7.73,-11.492 0.76,-1.387 1.55,-2.676 2.38,-3.907 l 32.01,-46.875 c 8.53,-12.468 13.14,-19.1794 13.84,-20.1248 10.32,-13.4374 16.66,-21.3593 19,-23.7421 2.35,-2.4024 4.61,-4.0899 6.81,-5.0469 2.21,-0.957 6.55,-1.5156 13.02,-1.6406 l 0,-17.7266 c -21.18,0.9375 -36.53,1.418 -46.02,1.418 -11.02,0 -21.95,-0.4805 -32.82,-1.418 -0.67,2.8906 -2.32,6.6914 -4.94,11.3867 l -44.21,71.6403 c -12.68,20.567 -23.41,36.77 -32.21,48.664 -4.42,5.926 -8.7,10.34 -12.81,13.239 l 2.28,6.8 c 16.47,-0.539 28.9,1.122 37.29,4.95 8.39,3.859 15.48,10.734 21.25,20.625 5.77,9.902 8.67,20.968 8.67,33.203 0,12.383 -3.04,22.676 -9.11,30.929 -6.06,8.239 -13.55,13.954 -22.51,17.118 -5.79,2.062 -16.13,3.097 -30.99,3.097 -6.63,0 -13.18,-0.566 -19.65,-1.66 -0.34,-4.844 -0.71,-15.898 -1.07,-33.086 -0.71,-38.136 -1.06,-63.605 -1.06,-76.398 0,-20.254 0.09,-41.727 0.23,-64.434 0.22,-27.82 0.37,-43.574 0.48,-47.2849 0.4,-7.586 1.16,-12.5313 2.26,-14.8711 0.56,-1.1055 1.44,-2.0742 2.69,-2.9024 1.23,-0.8086 3.24,-1.5117 5.97,-2.0586 2.76,-0.5468 10.74,-0.9687 23.95,-1.2304 l 0,-17.7266 c -23.52,0.9375 -47.09,1.418 -70.7,1.418 -21.03,0 -40.53,-0.4805 -58.48,-1.418 l 0,17.7266 c 15.76,0.5546 25.09,1.3086 27.99,2.2734 1.66,0.2734 2.87,0.8867 3.64,1.8438 0.75,0.9882 1.34,2.914 1.77,5.8046 0.96,5.2344 1.64,13.1641 2.07,23.7576 l 0.7,59.348 0,75.039 -0.7,42.793 c -0.28,16.934 -1.09,27.078 -2.44,30.371 -0.68,1.512 -1.7,2.695 -3.04,3.523 -3.24,1.661 -13.24,3.008 -29.99,4.141"
         style="fill:#9a9b9c;fill-opacity:1;fill-rule:nonzero;stroke:none"
         id="path24" /><path
         d="m 4895.04,258.555 -18.45,0 c -0.28,15.695 -0.95,26.797 -2.03,33.281 -4.22,5.918 -11.52,11.191 -21.92,15.812 -10.39,4.598 -22.05,6.914 -34.97,6.914 -18.46,0 -32.78,-4.632 -42.9,-13.867 -10.13,-9.238 -15.17,-20.14 -15.17,-32.687 0.13,-8.848 1.65,-16.063 4.52,-21.66 2.89,-5.575 6.99,-9.989 12.36,-13.231 5.36,-3.234 13.26,-6.172 23.7,-8.789 7.96,-1.66 19.04,-3.734 33.26,-6.203 14.22,-2.492 23.45,-4.148 27.7,-4.969 11.13,-2.894 20.12,-6.328 26.98,-10.312 6.89,-3.996 12.34,-8.555 16.39,-13.723 4.06,-5.176 7.37,-11.691 10,-19.609 2.61,-7.91 3.92,-16.805 3.92,-26.727 0,-17.199 -3.65,-32.336 -10.94,-45.3905 -5.5,-9.9257 -13.13,-18.9453 -22.88,-27.0429 -9.77,-8.1328 -19.81,-14.2578 -30.12,-18.3789 -16.49,-6.4532 -36.29,-9.6875 -59.4,-9.6875 -16.91,0 -31.95,1.5429 -45.15,4.6484 -13.22,3.0859 -27.71,8.4102 -43.52,15.9766 4.11,15.4023 6.24,38.7888 6.37,70.1168 l 18.45,0 c -0.29,-9.648 0.47,-21.777 2.26,-36.3082 5.18,-8.4376 14.08,-15.8399 26.66,-22.2071 12.59,-6.3672 26.34,-9.5429 41.27,-9.5429 12.98,0 24.59,2.2773 34.77,6.8281 10.2,4.5625 17.58,10.8125 22.15,18.7422 4.59,7.9297 6.9,16.9809 6.9,27.2069 0,8.555 -1.64,15.867 -4.87,21.93 -3.24,6.078 -8.32,10.941 -15.21,14.594 -6.89,3.66 -19.04,7.421 -36.4,11.285 -24.99,5.109 -41.39,8.82 -49.25,11.175 -11.86,3.555 -21.4,8.661 -28.65,15.262 -7.26,6.613 -12.66,14.59 -16.25,23.934 -3.58,9.347 -5.37,19.406 -5.37,30.129 0,15.125 3.23,29.093 9.71,41.894 6.46,12.793 15,22.668 25.62,29.602 10.61,6.953 22.59,11.953 35.96,15.058 13.35,3.086 27.07,4.657 41.1,4.657 14.6,0 28.76,-1.317 42.46,-3.914 13.7,-2.598 25.6,-6.321 35.67,-11.094 l 1.65,-4.922 c -2.01,-8.645 -3.45,-17.18 -4.38,-25.598 -0.92,-8.426 -1.6,-19.472 -2,-33.183"
         style="fill:#9a9b9c;fill-opacity:1;fill-rule:nonzero;stroke:none"
         id="path26" /><path
         d="m 5104.45,332.297 0,-17.735 c -14.22,-0.421 -22.67,-0.917 -25.34,-1.535 -2.68,-0.632 -4.57,-1.394 -5.7,-2.273 -1.11,-0.91 -1.91,-2.035 -2.32,-3.418 -0.99,-2.188 -1.7,-6.535 -2.11,-13 -0.12,-3.574 -0.23,-10.184 -0.3,-19.793 -0.27,-33.313 -0.41,-51.191 -0.41,-53.684 l 0,-81.523 0.71,-37.148 c 0,-13.9068 0.69,-22.9185 2.06,-27.0396 0.54,-1.9257 1.48,-3.3711 2.78,-4.3359 1.31,-0.957 3.37,-1.75 6.19,-2.375 2.81,-0.625 10.96,-1.0742 24.44,-1.3359 l 0,-17.7266 c -22.47,0.9375 -46.42,1.418 -71.9,1.418 -22.19,0 -41.94,-0.4805 -59.29,-1.418 l 0,17.7266 c 14.8,0.5546 23.33,1.0234 25.62,1.4453 3,0.5351 5.03,1.2695 6.08,2.1679 1.08,0.8672 1.76,1.9727 2.04,3.2032 0.42,1.6289 1,7.957 1.71,18.9843 0.47,16.2307 0.7,31.2387 0.7,45.0077 l 0,84.621 c 0,26.813 -0.23,44.082 -0.7,51.785 -0.67,17.051 -1.51,27.786 -2.47,32.219 -0.43,1.621 -1.07,2.93 -1.96,3.906 -0.9,0.965 -2.54,1.735 -4.96,2.371 -2.41,0.614 -11.09,1.2 -26.06,1.75 l 0,17.735 c 17.35,-0.949 37.25,-1.418 59.7,-1.418 25.2,0 49.02,0.469 71.49,1.418"
         style="fill:#9a9b9c;fill-opacity:1;fill-rule:nonzero;stroke:none"
         id="path28" /><path
         d="m 5205.32,49.375 0,16.3008 c 16.65,0.5547 26.52,1.6015 29.65,3.1914 3.12,1.5937 5.24,4.3086 6.35,8.1562 1.52,5.7774 2.3,23.2386 2.3,52.4216 l 0,121.102 c 0,33.019 -0.25,51.535 -0.71,55.508 l -29.55,0 c -14.89,0 -27.97,-0.489 -39.29,-1.434 -4.54,-0.41 -7.14,-0.969 -7.83,-1.66 -0.97,-0.824 -1.79,-3.164 -2.48,-6.992 -1.79,-9.485 -2.84,-20.082 -3.1,-31.739 l -17.03,0 c -0.51,27.715 -0.81,43.301 -0.93,46.747 -0.4,5.929 -1.03,12.355 -1.89,19.25 l 1.85,2.07 c 6.44,-0.481 13.31,-0.813 20.6,-1.008 11.8,-0.281 34.51,-0.41 68.17,-0.41 l 83.23,0 c 34.6,0 57.72,0.129 69.4,0.41 6.33,0.195 12.71,0.527 19.16,1.008 l 2.07,-2.07 c -1.15,-8.282 -1.85,-15.52 -2.09,-21.731 -0.13,-0.965 -0.37,-15.734 -0.76,-44.266 l -17.01,0 c -0.28,10.438 -1.17,20.469 -2.7,30.086 -0.82,4.817 -1.71,7.676 -2.68,8.645 -0.83,0.691 -3.05,1.16 -6.62,1.453 -11.31,1.094 -24.89,1.641 -40.74,1.641 l -29.6,0 c -0.41,-4.813 -0.61,-23.328 -0.61,-55.508 l 0,-121.102 c 0,-29.183 0.7,-46.7106 2.12,-52.6169 0.97,-3.5937 3.06,-6.2109 6.28,-7.8633 3.18,-1.6484 13.14,-2.7343 29.87,-3.289 l 0,-16.3008 c -26.77,0.9375 -49.36,1.418 -67.7,1.418 -19.61,0 -42.18,-0.4805 -67.73,-1.418"
         style="fill:#9a9b9c;fill-opacity:1;fill-rule:nonzero;stroke:none"
         id="path30" /><path
         d="m 5558.16,182.52 -83.3,111.914 c -12.5,17.16 -20.43,27.765 -40,27.765 l -4.16,0 0,12.266 c 22.48,0 42.91,-1.641 65.39,-1.641 21.68,0 41.68,1.641 61.66,1.641 l 0,-12.266 -5.39,0 c -11.27,0 -21.7,-2.855 -21.7,-9.387 0,-4.492 5,-9.792 7.52,-13.476 l 62.91,-86.582 51.64,73.105 c 7.5,11.829 12.91,18.789 12.91,26.543 0,8.575 -17.91,9.797 -23.73,9.797 l -7.52,0 0,12.266 c 15.86,0 31.68,-1.641 47.52,-1.641 13.32,0 26.66,1.641 39.57,1.641 l 0,-12.266 c -14.18,0 -25.82,-9.797 -32.5,-18.781 l -77.5,-107.41 0,-97.6213 c 0,-34.7148 12.52,-36.7539 34.59,-36.7539 l 7.91,0 0,-12.2578 c -24.57,0 -49.57,1.6328 -67.89,1.6328 -20.84,0 -45.84,-1.6328 -70.41,-1.6328 l 0,12.2578 7.91,0 c 24.59,0 34.57,6.5313 34.57,33.5039 l 0,87.3833"
         style="fill:#9a9b9c;fill-opacity:1;fill-rule:nonzero;stroke:none"
         id="path32" /><path
         d="m 739.688,1065.32 -23.77,6.95 c 4.758,50.91 -1.18,99.52 -46.356,143.5 -38.046,37.03 -90.343,55.54 -155.714,55.54 -242.489,0 -375.078,-226.74 -375.078,-417.665 0,-201.368 102.714,-348.012 286.945,-348.012 150.976,0 221.258,78.293 278.308,207.914 l 26.165,-5.793 -47.551,-196.727 c -7.129,4.618 -19.012,9.246 -32.098,9.246 -16.641,0 -52.305,-17.351 -80.82,-27.765 -54.688,-19.664 -89.153,-26.621 -152.16,-26.621 -228.211,0 -413.24259,154.437 -413.24259,389.347 0,251.106 231.37859,453.116 485.75359,453.116 177.11,0 198.504,-54.39 237.735,-54.39 15.457,0 26.152,13.88 36.843,23.14 l 15.637,-4.04 -40.597,-207.74"
         style="fill:#9a9b9c;fill-opacity:1;fill-rule:nonzero;stroke:none"
         id="path34" /><path
         d="m 3358.18,743.133 c 19.37,77.914 115,243.195 208.21,243.195 31.46,0 49.63,-20.07 49.63,-50.773 0,-128.66 -146.48,-185.328 -257.84,-192.422 z M 3648.73,627.59 c -69.01,-64.922 -127.37,-94.328 -197.61,-94.328 -56.87,0 -104.7,26.535 -108.68,88.281 -2.17,33.508 1.13,52.801 8.41,83.496 129.52,11.805 362,74.699 362,235.246 0,64.925 -64.16,83.825 -118.63,83.825 -175.52,0 -357.68,-194.059 -352.6,-396.52 1.99,-79.102 41.5,-160.707 152.87,-160.707 106.54,0 194.19,52.687 274.08,138.859 l -19.84,21.848"
         style="fill:#9a9b9c;fill-opacity:1;fill-rule:nonzero;stroke:none"
         id="path36" /><path
         d="m 3892.98,560.07 c -13.94,0 -19.94,12.352 -19.94,25.125 0,8.145 2.3,18.594 3.46,23.243 l 198.18,771.792 -23.83,-10.92 c -25.82,-10.93 -54.03,-18.84 -85.39,-25.81 -29.04,-5.81 -60.83,-10.6 -86.39,-12.91 l -3.97,-26.82 43.63,-12.97 c 1.88,-1.01 3.78,-2.06 5.86,-3.26 13.5,-7.82 14.68,-18.35 13.18,-29.34 L 3773.48,581.934 c -7.87,-36.172 -7.33,-47.95 -5.82,-65.614 1.88,-22.316 12.44,-48.39 48.45,-48.437 100.69,-0.156 159.71,109.558 196.18,160.222 l -22.02,18.352 c -12.77,-17.434 -75.23,-86.387 -97.29,-86.387"
         style="fill:#9a9b9c;fill-opacity:1;fill-rule:nonzero;stroke:none"
         id="path38" /><path
         d="m 4621.48,1308.68 c 7.93,-2.26 10.84,-9.79 9.08,-23.06 -1.78,-13.26 23.01,34.79 23.01,34.79 l -56.6,3.54 -11.05,-7.52 c 0,0 -14.19,0.57 -2.26,0.57 11.94,0 33.8,-7.18 37.82,-8.32"
         style="fill:#9a9b9c;fill-opacity:1;fill-rule:nonzero;stroke:none"
         id="path40" /><path
         d="m 2473.72,647.004 c -18.86,-28.164 -63.58,-81.371 -97.46,-83.828 -7.71,-0.578 -18.47,1.289 -20.35,16.472 -1.82,14.571 0.92,29.297 10,61.438 l 80.57,266.855 c 6.05,19.012 10.22,36.036 13.61,56.59 6.54,39.519 -8.32,60.109 -36.22,59.679 -123.28,-1.93 -275.39,-133.437 -335.79,-217.921 l -25.16,-32.48 53.96,149.98 c 5.03,14.699 13.83,37.949 13.83,58.77 0,23.261 -12.57,41.511 -42.77,41.651 -107.76,0.43 -184.7,-105.87 -232.51,-163.429 l 19.91,-18.855 44.48,43.301 c 23.07,20.722 46.58,39.05 69.74,33.191 9.61,-2.43 14.48,-8.094 13,-25.496 -1.51,-17.766 -5.44,-37.168 -13,-60.43 l -112.72,-355.547 98,0 27.3,71.551 c 33.98,93.078 78.97,174.102 143.68,250.383 59.63,70.293 125.66,120.594 177,116.406 8.42,-0.695 25.15,-7.344 20.96,-33.547 -2.71,-16.922 -9.85,-40.32 -13.62,-51.347 l -78.61,-256.746 c -8.37,-30.391 -8.48,-54.075 -3.37,-73.391 4.61,-17.402 24.11,-32.453 56.82,-32.453 69.2,0 99.14,49.269 144.88,102.199 l 44.8,59.18 -20.96,17.824"
         style="fill:#9a9b9c;fill-opacity:1;fill-rule:nonzero;stroke:none"
         id="path42" /><path
         d="m 1267.53,983.742 c -7.34,36.938 -30.5,40.328 -57.69,40.328 -81.58,0 -166.45,-101.269 -196.7,-156.226 l -19.359,-31.36 20.369,77.746 c 8.58,28.731 10.59,53.438 10.4,60.958 -0.67,26.762 -18.67,49.272 -51.034,49.322 -73.621,0.13 -170.848,-120.545 -202.274,-166.393 L 789.59,841.75 c 21.379,23.164 76.035,74.219 110.988,74.219 16.844,0 20.84,-17.571 20.84,-30.657 0,-17.859 -6.184,-43.507 -12.656,-62.558 L 810.383,494.895 c -0.742,-2.024 -3.274,-10.391 -5.352,-17.95 l 92.227,0 21.883,71.512 c 42.726,121.398 110.289,336.613 212.189,359.445 15.15,3.407 35.15,12.371 89.72,0 34.16,-7.734 52.89,43.563 46.48,75.84"
         style="fill:#9a9b9c;fill-opacity:1;fill-rule:nonzero;stroke:none"
         id="path44" /><path
         d="m 1785.95,646.445 c -13.85,-12.715 -69.77,-81.785 -106.69,-81.289 -9.08,0.117 -13.34,9.016 -13.99,13.977 -1.13,8.808 0.8,18.308 3.82,31.754 l 98.64,413.753 -87.65,0 -9.72,-36.515 c -19.11,22.075 -61.32,36.515 -93.17,36.515 -164.31,0 -419.97,-253.714 -372.12,-462.335 9.36,-40.762 49.73,-96.59 127.43,-97.489 98.96,-1.152 190.79,81.473 228.95,146.141 2.7,4.305 11.3,18.332 17.62,32.578 l -3.84,-17.637 -9.02,-36.601 c -10.77,-48.301 -9.33,-64.481 -6.35,-82.567 6.41,-38.906 41.87,-41.496 60.97,-40.644 85.1,3.809 144.79,105.418 186.71,163.855 l -21.59,16.504 z m -215.64,45.098 c -76.17,-114.668 -183.6,-177.266 -240,-139.805 -16.11,10.715 -26.12,28.586 -30.72,51.094 -0.07,0.344 -0.14,0.684 -0.21,1.035 -0.64,3.242 -1.18,6.555 -1.57,9.973 -0.33,2.605 -0.58,5.254 -0.76,7.976 -0.16,2.375 -0.25,4.778 -0.3,7.219 -0.05,2.488 -0.05,5 0.03,7.578 1.04,54.02 24.81,123.731 69.25,190.606 76.15,114.676 183.62,177.261 240.08,139.812 56.39,-37.461 40.37,-160.812 -35.8,-275.488"
         style="fill:#9a9b9c;fill-opacity:1;fill-rule:nonzero;stroke:none"
         id="path46" /><path
         d="m 4572.32,558.066 c -7.23,-1.093 -18.07,-2.109 -20.45,11.457 -2.01,11.434 0.97,27.321 4.61,42.43 l 171.33,762.797 -14.26,-5.6 c -25.54,-8.99 -45.01,-18.38 -77.71,-25.35 -30.28,-5.81 -69.3,-16.26 -95.96,-18.57 l -1.59,-21.27 18.13,-4.92 24.44,-6.65 c 5.19,-1.99 10.39,-4.54 14.14,-7.74 6.05,-5.17 6.5,-12.05 5.64,-19.15 l -54.37,-265.988 c -27.85,15.088 -63.61,25.128 -96.33,25.128 -105.33,0 -232.34,-112.882 -288.19,-196.652 -45.12,-67.676 -77.94,-148.836 -77.94,-223.183 0,-75.508 30.28,-139.102 117.47,-140.547 146.35,-2.442 236.49,129.992 253.25,160.304 l 14.36,24.727 -10.36,-44.668 c -15.45,-58.32 -14.62,-80.871 -9.57,-98.918 6.76,-24.219 24.85,-36.582 56.78,-38.008 92.49,-4.148 159.04,128.391 184.92,162.453 l -19.14,15.153 c -20.58,-23.231 -60.56,-81.363 -99.2,-87.235 z M 4453.48,687.137 C 4387.14,570.176 4284.04,503.379 4223.16,537.91 c -60.92,34.543 -56.56,157.336 9.79,274.297 66.33,116.965 169.47,183.781 230.41,149.25 60.88,-34.543 56.46,-157.375 -9.88,-274.32"
         style="fill:#9a9b9c;fill-opacity:1;fill-rule:nonzero;stroke:none"
         id="path48" /><path
         d="m 2898.1,1252.81 c 28.17,34.49 70.77,72.8 125.19,72.8 41.42,0 76.74,-14.95 75.56,-68.38 0,-22.08 31.08,-27.58 52.38,-27.58 30.78,0 47.44,24.95 47.44,55.15 0,65.06 -87.63,94.31 -142.06,94.31 -61.54,0 -114.79,-19.73 -164.49,-54.59 -113.32,-81.11 -159.52,-181.89 -187.94,-318.45 l -115.92,0 -14.39,-48.988 121.72,-0.07 -203.96,-956.140906 59.68,0 71.03,264.159906 177.54,691.903 222.7,-0.129 -86.82,-377.489 c -6.87,-34.871 -5.05,-58.476 -0.49,-73.683 5.9,-19.645 20.63,-37.34 54.96,-37.34 67.46,0 142.54,113.047 179.23,161.836 l -21.18,16.641 c -11.83,-12.774 -71.94,-78.848 -98.99,-81.563 -13.75,-1.379 -18.87,4.902 -19.7,16.074 -1.51,20.41 3.44,30.457 7.36,49.617 l 101.16,353 6.44,22.172 -334.66,0 21.61,92.35 c 13.95,51.5 48.27,131.95 66.6,154.39"
         style="fill:#9a9b9c;fill-opacity:1;fill-rule:nonzero;stroke:none"
         id="path50" /></g></g></svg>
